HIERARCHY
ROOT Hips
{
	OFFSET 0.000000 0.000000 0.000000
	CHANNELS 6 Xposition Yposition Zposition Zrotation Yrotation Xrotation 
	JOINT LHipJoint
	{
		OFFSET 0.000000 0.000000 0.000000
		CHANNELS 3 Zrotation Yrotation Xrotation
		JOINT LeftUpLeg
		{
			OFFSET 1.363060 -1.794630 0.839290
			CHANNELS 3 Zrotation Yrotation Xrotation
			JOINT LeftLeg
			{
				OFFSET 2.448110 -6.726130 0.000000
				CHANNELS 3 Zrotation Yrotation Xrotation
				JOINT LeftFoot
				{
					OFFSET 2.562200 -7.039590 0.000000
					CHANNELS 3 Zrotation Yrotation Xrotation
					JOINT LeftToeBase
					{
						OFFSET 0.157640 -0.433110 2.322550
						CHANNELS 3 Zrotation Yrotation Xrotation
						End Site
						{
							OFFSET 0.000000 0.000000 0.000000
						}
					}
				}
			}
		}
	}
	JOINT RHipJoint
	{
		OFFSET 0.000000 0.000000 0.000000
		CHANNELS 3 Zrotation Yrotation Xrotation
		JOINT RightUpLeg
		{
			OFFSET -1.305520 -1.794630 0.839290
			CHANNELS 3 Zrotation Yrotation Xrotation
			JOINT RightLeg
			{
				OFFSET -2.542530 -6.985550 0.000000
				CHANNELS 3 Zrotation Yrotation Xrotation
				JOINT RightFoot
				{
					OFFSET -2.568260 -7.056230 0.000000
					CHANNELS 3 Zrotation Yrotation Xrotation
					JOINT RightToeBase
					{
						OFFSET -0.164730 -0.452590 2.363150
						CHANNELS 3 Zrotation Yrotation Xrotation
						End Site
						{
							OFFSET 0.000000 0.000000 0.000000
						}
					}
				}
			}
		}
	}
}
MOTION
Frames: 20
Frame Time: 0.008333
-3.645523 16.952218 -0.044106 3.129349 72.305685 5.384327 -10.353544 0.657975 3.670103 -1.274357 -6.775572 -23.898400 -1.463094 0.507996 15.069446 0.135975 -0.155969 5.396057 0.129600 -0.000000 -36.517300 9.079704 -2.543862 -1.298913 7.428792 -5.137856 12.740032 2.863562 -0.757289 13.471902 0.965167 10.092094 -7.727198 -0.044000 -0.000000 -46.682200
-3.503097 16.959991 -0.030554 3.197329 71.512928 5.370699 -10.394993 0.741366 3.509518 -1.547729 -5.884869 -23.643215 -1.448251 0.557311 15.672968 0.158651 -0.028102 5.551665 0.147100 0.000000 -36.491200 9.165798 -2.602488 -1.245778 6.889249 -4.936532 12.577754 2.783728 -0.916046 14.624648 1.030116 10.557510 -7.066147 0.029700 0.000000 -48.521100
-3.361539 16.969002 -0.015955 3.309078 70.701211 5.384205 -10.433089 0.825078 3.328672 -1.858053 -4.865198 -23.371248 -1.449236 0.598754 16.244790 0.176472 0.064349 5.545184 0.158000 0.000000 -36.526600 9.260037 -2.662294 -1.188535 6.310393 -4.742638 12.369219 2.692305 -1.077961 15.828660 1.095969 11.069286 -6.325566 0.125400 -0.000000 -50.535800
-3.221137 16.979069 -0.000439 3.449172 69.869995 5.413671 -10.467019 0.909563 3.133414 -2.188293 -3.754406 -23.074350 -1.465953 0.632791 16.776858 0.188120 0.111581 5.377672 0.160100 0.000000 -36.632500 9.362621 -2.723310 -1.128788 5.694434 -4.562928 12.103428 2.589375 -1.243089 17.092329 1.163554 11.651922 -5.491391 0.249800 -0.000000 -52.698500
-3.082118 16.989917 0.015809 3.608072 69.018583 5.453885 -10.496137 0.995242 2.930217 -2.524740 -2.593107 -22.745072 -1.497195 0.659867 17.261459 0.193512 0.113603 5.061448 0.153500 0.000000 -36.809400 9.474382 -2.785433 -1.068685 5.040077 -4.409446 11.764614 2.474436 -1.411456 18.429590 1.232401 12.328072 -4.553853 0.411100 -0.000000 -54.979100
-2.944772 17.001189 0.032671 3.784768 68.145889 5.508231 -10.519713 1.082443 2.725777 -2.858920 -1.423235 -22.377138 -1.540812 0.680288 17.691115 0.193865 0.081326 4.618606 0.141100 0.000000 -37.047500 9.596899 -2.848282 -1.010836 4.341870 -4.298862 11.333895 2.345828 -1.582821 19.855741 1.300050 13.110776 -3.502460 0.620000 0.000001 -57.435200
-2.809326 17.012572 0.050017 3.974259 67.250258 5.576776 -10.537463 1.171052 2.526095 -3.184280 -0.281889 -21.967927 -1.593618 0.694337 18.060767 0.191409 0.033819 4.077105 0.127101 -0.000000 -37.328600 9.730372 -2.910415 -0.956537 3.602022 -4.238381 10.794656 2.202620 -1.755714 21.386836 1.361364 13.992030 -2.351745 0.883800 -0.000000 -59.911400
-2.676035 17.023663 0.067771 4.175054 66.329808 5.663104 -10.549060 1.260700 2.336340 -3.498566 0.798854 -21.517726 -1.651962 0.702199 18.367346 0.189184 -0.002421 3.467399 0.116300 -0.000000 -37.626400 9.874665 -2.969774 -0.906715 2.823677 -4.232253 10.132984 2.043820 -1.927985 23.034962 1.409823 14.940702 -1.125297 1.206000 0.000000 -62.267400
-2.545147 17.034162 0.085906 4.387941 65.382409 5.772036 -10.554008 1.350747 2.160276 -3.803692 1.794369 -21.029866 -1.712145 0.704072 18.610422 0.190631 0.003106 2.819141 0.113000 0.000000 -37.910800 10.029008 -3.023711 -0.862106 2.013265 -4.280634 9.339994 1.868833 -2.097138 24.806113 1.438720 15.898728 0.145015 1.583100 -0.000000 -64.404500
-2.416940 17.043798 0.104426 4.607936 64.405216 5.901512 -10.552166 1.440313 1.999966 -4.101377 2.690453 -20.510379 -1.770550 0.700358 18.792833 0.199154 0.079980 2.157915 0.119900 -0.000000 -38.153200 10.190805 -3.069134 -0.822392 1.186006 -4.372293 8.416593 1.678437 -2.260525 26.696045 1.442771 16.779650 1.416406 1.998999 0.000000 -66.217600
-2.291662 17.052365 0.123329 4.831459 63.396305 6.049045 -10.543285 1.528522 1.855802 -4.395310 3.482073 -19.966056 -1.824206 0.691588 18.919832 0.217813 0.254047 1.503905 0.137700 -0.000000 -38.330000 10.357215 -3.103076 -0.787770 0.357896 -4.495729 7.370455 1.473947 -2.416236 28.692269 1.419285 17.478839 2.647027 2.425800 -0.000000 -67.732701
-2.169503 17.059754 0.142682 5.050475 62.353413 6.205897 -10.527574 1.614501 1.726442 -4.686758 4.174661 -19.404273 -1.870818 0.678603 18.999558 0.248892 0.542130 0.871147 0.165600 -0.000000 -38.428201 10.524547 -3.122732 -0.758380 -0.450618 -4.635291 6.217357 1.257676 -2.563129 30.774747 1.368290 17.882353 3.790989 2.822300 0.000000 -68.993500
-2.050666 17.065978 0.162482 5.256636 61.275917 6.360316 -10.505600 1.697518 1.609366 -4.975735 4.780546 -18.830544 -1.908895 0.662366 19.040611 0.293902 0.952124 0.268053 0.201400 -0.000000 -38.445700 10.689273 -3.125729 -0.734689 -1.220292 -4.776296 4.978579 1.032221 -2.700972 32.919433 1.291452 17.882333 4.802875 3.138200 0.000000 -70.042001
-1.935212 17.071145 0.182701 5.439753 60.164710 6.497554 -10.478670 1.776945 1.501108 -5.258879 5.318442 -18.248233 -1.937704 0.643917 19.051919 0.353240 1.480214 -0.301998 0.242000 0.000000 -38.392000 10.848037 -3.110292 -0.717404 -1.932954 -4.907962 3.677929 0.800434 -2.829932 35.099224 1.190313 17.391046 5.638802 3.322400 -0.000000 -70.872400
-1.823143 17.075437 0.203305 5.593073 59.022611 6.605266 -10.448387 1.852419 1.398026 -5.532458 5.808939 -17.658596 -1.957357 0.624194 19.040940 0.426248 2.112973 -0.838882 0.284400 0.000000 -38.285700 10.998447 -3.075068 -0.707547 -2.575909 -5.026346 2.339151 0.565076 -2.950215 37.286989 1.064465 16.353091 6.259549 3.332999 0.000000 -71.424000
-1.714359 17.079104 0.224203 5.711508 57.855115 6.672148 -10.416910 1.923784 1.296803 -5.791171 6.272793 -17.060419 -1.968512 0.603969 19.013146 0.511176 2.828445 -1.344263 0.325100 0.000000 -38.149800 11.138614 -3.019175 -0.705894 -3.140517 -5.133510 0.983987 0.329446 -3.061564 39.454448 0.910753 14.754196 6.631673 3.147600 -0.000001 -71.563400
-1.608653 17.082387 0.245358 5.793228 56.669040 6.692050 -10.386304 1.991042 1.194674 -6.030232 6.728503 -16.452111 -1.972425 0.583755 18.972071 0.605269 3.598651 -1.821069 0.361400 0.000000 -38.009100 11.267532 -2.942111 -0.713120 -3.623622 -5.238082 -0.370125 0.097662 -3.163222 41.573947 0.723667 12.626045 6.729761 2.769900 0.000001 -71.110201
-1.505736 17.085542 0.266738 5.837794 55.473444 6.661365 -10.358843 2.054395 1.089890 -6.244803 7.191280 -15.831807 -1.970569 0.563858 18.918890 0.704991 4.392485 -2.271303 0.390600 -0.000000 -37.886000 11.384215 -2.844325 -0.729179 -4.023836 -5.351565 -1.709359 -0.124823 -3.254158 43.618088 0.497311 10.046272 6.537159 2.230500 -0.000000 -69.844199
-1.405293 17.088868 0.288323 5.846229 54.277352 6.579924 -10.336920 2.114367 0.982052 -6.429447 7.672320 -15.198846 -1.964443 0.544414 18.852964 0.806419 5.179231 -2.695520 0.411100 0.000000 -37.798900 11.487496 -2.727628 -0.752935 -4.341235 -5.485864 -3.024435 -0.331448 -3.333362 45.560172 0.228578 7.136146 6.048783 1.584700 0.000000 -67.561200
-1.306968 17.092491 0.310117 5.820884 53.089846 6.451838 -10.322144 2.171639 0.871510 -6.581557 8.178645 -14.554835 -1.955694 0.525445 18.773047 0.905558 5.930640 -3.093442 0.421900 -0.000000 -37.759700 11.576621 -2.595239 -0.783379 -4.579192 -5.655539 -4.311847 -0.515111 -3.400498 47.376795 -0.079421 4.051644 5.270228 0.903900 0.000000 -64.110100
